<svg height="200px" width="200px" version="1.1" id="Layer_1" xmlns="http://www.w3.org/2000/svg" xmlns:xlink="http://www.w3.org/1999/xlink" viewBox="0 0 512 512" xml:space="preserve" fill="#000000"><g id="SVGRepo_bgCarrier" stroke-width="0"></g><g id="SVGRepo_tracerCarrier" stroke-linecap="round" stroke-linejoin="round"></g><g id="SVGRepo_iconCarrier"> <g transform="translate(1 1)"> <path style="fill:#FFDD09;" d="M476.867,255C476.867,118.467,377.88,7.533,255,7.533S33.133,118.467,33.133,255 S132.12,502.467,255,502.467S476.867,391.533,476.867,255"></path> <path style="fill:#FFFFFF;" d="M33.133,255C33.133,118.467,132.12,7.533,255,7.533C118.467,7.533,7.533,118.467,7.533,255 S118.467,502.467,255,502.467C132.12,502.467,33.133,391.533,33.133,255"></path> <path style="fill:#FD9808;" d="M255,7.533c122.88,0,221.867,110.933,221.867,247.467S377.88,502.467,255,502.467 c136.533,0,247.467-110.933,247.467-247.467S391.533,7.533,255,7.533"></path> <path style="fill:#FCC309;" d="M280.6,255c0-14.507-11.093-25.6-25.6-25.6c-14.507,0-25.6,11.093-25.6,25.6 c0,14.507,11.093,25.6,25.6,25.6C269.507,280.6,280.6,269.507,280.6,255"></path> <path d="M255,511C114.2,511-1,395.8-1,255S114.2-1,255-1s256,115.2,256,256S395.8,511,255,511z M255,16.067 C123.587,16.067,16.067,123.587,16.067,255S123.587,493.933,255,493.933S493.933,386.413,493.933,255S386.413,16.067,255,16.067z"></path> <path d="M127,92.867c-2.56,0-5.12-0.853-6.827-3.413c-2.56-3.413-1.707-9.387,1.707-11.947 c29.013-21.333,62.293-35.84,97.28-41.813c4.267-0.853,9.387,2.56,9.387,6.827c0.853,4.267-2.56,9.387-6.827,9.387 c-32.427,5.12-64,18.773-90.453,38.4C130.413,92.013,128.707,92.867,127,92.867z"></path> <path d="M44.227,229.4c-0.853,0-0.853,0-1.707,0c-4.267-0.853-7.68-5.12-6.827-9.387c5.973-34.987,19.627-69.12,41.813-97.28 c2.56-3.413,8.533-4.267,11.947-1.707c3.413,2.56,4.267,8.533,1.707,11.947c-19.627,26.453-33.28,57.173-38.4,89.6 C51.907,226.84,48.493,229.4,44.227,229.4z"></path> <path d="M84.333,391.533c-2.56,0-5.12-0.853-6.827-3.413c-21.333-29.013-35.84-62.293-41.813-97.28 c-0.853-4.267,2.56-9.387,6.827-9.387c4.267-0.853,9.387,2.56,9.387,6.827c5.12,32.427,18.773,64,38.4,90.453 c2.56,3.413,1.707,9.387-1.707,11.947C87.747,390.68,86.04,391.533,84.333,391.533z"></path> <path d="M220.867,474.307c-0.853,0-0.853,0-1.707,0c-34.987-5.973-69.12-19.627-97.28-41.813c-3.413-2.56-4.267-8.533-1.707-11.947 c2.56-3.413,8.533-4.267,11.947-1.707c26.453,19.627,57.173,33.28,89.6,38.4c4.267,0.853,7.68,5.12,6.827,9.387 C228.547,470.893,225.133,474.307,220.867,474.307z"></path> <path d="M289.133,474.307c-4.267,0-7.68-2.56-8.533-6.827s2.56-9.387,6.827-9.387c32.427-5.12,63.147-18.773,89.6-38.4 c3.413-2.56,9.387-1.707,11.947,1.707s1.707,9.387-1.707,11.947c-29.013,21.333-62.293,35.84-97.28,41.813 C289.987,474.307,289.987,474.307,289.133,474.307z"></path> <path d="M425.667,391.533c-1.707,0-3.413-0.853-5.12-1.707c-3.413-2.56-4.267-8.533-1.707-11.947 c19.627-26.453,33.28-57.173,38.4-89.6c0.853-4.267,5.12-7.68,9.387-6.827c4.267,0.853,7.68,5.12,6.827,9.387 c-5.973,34.987-19.627,69.12-41.813,97.28C430.787,389.827,428.227,391.533,425.667,391.533z"></path> <path d="M465.773,229.4c-4.267,0-7.68-2.56-8.533-6.827c-5.12-32.427-18.773-64-38.4-90.453c-2.56-3.413-1.707-9.387,1.707-11.947 c3.413-2.56,9.387-1.707,11.947,1.707c21.333,29.013,35.84,62.293,41.813,97.28c0.853,4.267-2.56,9.387-6.827,9.387 C466.627,229.4,465.773,229.4,465.773,229.4z"></path> <path d="M383,92.867c-1.707,0-3.413-0.853-5.12-1.707c-26.453-19.627-58.027-33.28-90.453-38.4c-4.267-0.853-7.68-5.12-6.827-9.387 s5.12-7.68,9.387-6.827c34.987,5.973,69.12,20.48,97.28,41.813c3.413,2.56,4.267,8.533,1.707,11.947 C388.12,92.013,385.56,92.867,383,92.867z"></path> <path d="M255,84.333c-5.12,0-8.533-3.413-8.533-8.533V41.667c0-5.12,3.413-8.533,8.533-8.533s8.533,3.413,8.533,8.533V75.8 C263.533,80.067,260.12,84.333,255,84.333z"></path> <path d="M255,476.867c-5.12,0-8.533-3.413-8.533-8.533V434.2c0-5.12,3.413-8.533,8.533-8.533s8.533,3.413,8.533,8.533v34.133 C263.533,473.453,260.12,476.867,255,476.867z"></path> <path d="M468.333,263.533H434.2c-5.12,0-8.533-3.413-8.533-8.533s3.413-8.533,8.533-8.533h34.133c5.12,0,8.533,3.413,8.533,8.533 S473.453,263.533,468.333,263.533z"></path> <path d="M75.8,263.533H41.667c-5.12,0-8.533-3.413-8.533-8.533s3.413-8.533,8.533-8.533H75.8c5.12,0,8.533,3.413,8.533,8.533 S80.067,263.533,75.8,263.533z"></path> <path d="M382.147,136.387c-2.56,0-4.267-0.853-5.973-2.56c-3.413-3.413-3.413-8.533,0-11.947l23.893-23.893 c3.413-3.413,8.533-3.413,11.947,0c3.413,3.413,3.413,8.533,0,11.947l-23.893,23.893 C386.413,135.533,383.853,136.387,382.147,136.387z"></path> <path d="M103.96,414.573c-2.56,0-4.267-0.853-5.973-2.56c-3.413-3.413-3.413-8.533,0-11.947l23.893-23.893 c3.413-3.413,8.533-3.413,11.947,0c3.413,3.413,3.413,8.533,0,11.947l-23.893,23.893C108.227,413.72,106.52,414.573,103.96,414.573 z"></path> <path d="M406.04,414.573c-2.56,0-4.267-0.853-5.973-2.56l-23.893-23.893c-3.413-3.413-3.413-8.533,0-11.947 c3.413-3.413,8.533-3.413,11.947,0l23.893,23.893c3.413,3.413,3.413,8.533,0,11.947C410.307,413.72,407.747,414.573,406.04,414.573 z"></path> <path d="M127.853,136.387c-2.56,0-4.267-0.853-5.973-2.56l-23.893-23.893c-3.413-3.413-3.413-8.533,0-11.947 c3.413-3.413,8.533-3.413,11.947,0l23.893,23.893c3.413,3.413,3.413,8.533,0,11.947 C132.973,135.533,130.413,136.387,127.853,136.387z"></path> <path d="M255,289.133c-18.773,0-34.133-15.36-34.133-34.133s15.36-34.133,34.133-34.133s34.133,15.36,34.133,34.133 S273.773,289.133,255,289.133z M255,237.933c-9.387,0-17.067,7.68-17.067,17.067s7.68,17.067,17.067,17.067 s17.067-7.68,17.067-17.067S264.387,237.933,255,237.933z"></path> <path d="M348.867,263.533H280.6c-5.12,0-8.533-3.413-8.533-8.533s3.413-8.533,8.533-8.533h68.267c5.12,0,8.533,3.413,8.533,8.533 S353.987,263.533,348.867,263.533z"></path> <path d="M255,237.933c-5.12,0-8.533-3.413-8.533-8.533V127c0-5.12,3.413-8.533,8.533-8.533s8.533,3.413,8.533,8.533v102.4 C263.533,234.52,260.12,237.933,255,237.933z"></path> </g> </g></svg>