<svg height="200px" width="200px" version="1.1" id="Layer_1" xmlns="http://www.w3.org/2000/svg" xmlns:xlink="http://www.w3.org/1999/xlink" viewBox="0 0 512 512" xml:space="preserve" fill="#000000"><g id="SVGRepo_bgCarrier" stroke-width="0"></g><g id="SVGRepo_tracerCarrier" stroke-linecap="round" stroke-linejoin="round"></g><g id="SVGRepo_iconCarrier"> <g transform="translate(1 1)"> <path style="fill:#FCC309;" d="M316.44,378.733V395.8H193.56v-17.067H33.133v25.6c0,9.387,6.827,17.067,15.36,17.067h413.013 c8.533,0,15.36-7.68,15.36-17.067v-25.6H316.44z"></path> <path style="fill:#FFFFFF;" d="M33.133,404.333v-25.6h-25.6v25.6c0,9.387,7.68,17.067,17.067,17.067h23.893 C39.96,421.4,33.133,413.72,33.133,404.333"></path> <path style="fill:#FD9808;" d="M476.867,378.733v25.6c0,9.387-6.827,17.067-15.36,17.067H485.4c9.387,0,17.067-7.68,17.067-17.067 v-25.6H476.867z"></path> <path style="fill:#FFDD09;" d="M186.733,378.733V395.8h136.533v-17.067h119.467V105.667c0-9.387-6.827-17.067-15.36-17.067H82.627 c-8.533,0-15.36,7.68-15.36,17.067v273.067H186.733z"></path> <path style="fill:#FFFFFF;" d="M82.627,88.6H58.733c-9.387,0-17.067,7.68-17.067,17.067v273.067h25.6V105.667 C67.267,96.28,74.093,88.6,82.627,88.6"></path> <path style="fill:#FD9808;" d="M451.267,88.6h-23.893c8.533,0,15.36,7.68,15.36,17.067v273.067h25.6V105.667 C468.333,96.28,460.653,88.6,451.267,88.6"></path> <path style="fill:#FFDD09;" d="M476.867,88.6h-23.893c8.533,0,15.36,7.68,15.36,17.067v273.067h25.6V105.667 C493.933,96.28,486.253,88.6,476.867,88.6"></path> <path d="M323.267,404.333H186.733c-5.12,0-8.533-3.413-8.533-8.533v-8.533H41.667c-5.12,0-8.533-3.413-8.533-8.533v-51.2 c0-5.12,3.413-8.533,8.533-8.533s8.533,3.413,8.533,8.533V370.2h136.533c5.12,0,8.533,3.413,8.533,8.533v8.533h119.467v-8.533 c0-5.12,3.413-8.533,8.533-8.533H459.8V105.667c0-5.12-3.413-8.533-8.533-8.533H58.733c-5.12,0-8.533,3.413-8.533,8.533v153.6 c0,5.12-3.413,8.533-8.533,8.533s-8.533-3.413-8.533-8.533v-153.6c0-14.507,11.093-25.6,25.6-25.6h392.533 c14.507,0,25.6,11.093,25.6,25.6v273.067c0,5.12-3.413,8.533-8.533,8.533H331.8v8.533 C331.8,400.92,328.387,404.333,323.267,404.333z"></path> <path d="M50.2,293.4c0-5.12-3.413-8.533-8.533-8.533s-8.533,3.413-8.533,8.533c0,5.12,3.413,8.533,8.533,8.533 S50.2,298.52,50.2,293.4"></path> <g> <polygon style="fill:#c64600;" points="75.8,344.6 127,344.6 127,301.933 75.8,301.933 "></polygon> <polygon style="fill:#c64600;" points="152.6,344.6 203.8,344.6 203.8,301.933 152.6,301.933 "></polygon> <polygon style="fill:#c64600;" points="229.4,344.6 280.6,344.6 280.6,301.933 229.4,301.933 "></polygon> <polygon style="fill:#c64600;" points="306.2,344.6 357.4,344.6 357.4,301.933 306.2,301.933 "></polygon> <polygon style="fill:#c64600;" points="383,344.6 434.2,344.6 434.2,301.933 383,301.933 "></polygon> </g> <g> <polygon style="fill:#ff7800;" points="75.8,301.933 127,301.933 127,259.267 75.8,259.267 "></polygon> <polygon style="fill:#ff7800;" points="152.6,301.933 203.8,301.933 203.8,225.133 152.6,225.133 "></polygon> <polygon style="fill:#ff7800;" points="229.4,301.933 280.6,301.933 280.6,173.933 229.4,173.933 "></polygon> <polygon style="fill:#ff7800;" points="306.2,301.933 357.4,301.933 357.4,233.667 306.2,233.667 "></polygon> <polygon style="fill:#ff7800;" points="383,301.933 434.2,301.933 434.2,122.733 383,122.733 "></polygon> </g> <path d="M135.533,353.133H67.267V293.4h68.267V353.133z M84.333,336.067h34.133v-25.6H84.333V336.067z"></path> <path d="M212.333,353.133h-68.267V293.4h68.267V353.133z M161.133,336.067h34.133v-25.6h-34.133V336.067z"></path> <path d="M289.133,353.133h-68.267V293.4h68.267V353.133z M237.933,336.067h34.133v-25.6h-34.133V336.067z"></path> <path d="M365.933,353.133h-68.267V293.4h68.267V353.133z M314.733,336.067h34.133v-25.6h-34.133V336.067z"></path> <path d="M442.733,353.133h-68.267V293.4h68.267V353.133z M391.533,336.067h34.133v-25.6h-34.133V336.067z"></path> <path d="M135.533,310.467H67.267v-59.733h68.267V310.467z M84.333,293.4h34.133v-25.6H84.333V293.4z"></path> <path d="M212.333,310.467h-68.267V216.6h68.267V310.467z M161.133,293.4h34.133v-59.733h-34.133V293.4z"></path> <path d="M289.133,310.467h-68.267V165.4h68.267V310.467z M237.933,293.4h34.133V182.467h-34.133V293.4z"></path> <path d="M365.933,310.467h-68.267v-85.333h68.267V310.467z M314.733,293.4h34.133v-51.2h-34.133V293.4z"></path> <path d="M442.733,310.467h-68.267V114.2h68.267V310.467z M391.533,293.4h34.133V131.267h-34.133V293.4z"></path> <path d="M75.8,199.533c-2.56,0-4.267-0.853-5.973-2.56c-3.413-3.413-3.413-8.533,0-11.947l59.733-59.733 c3.413-3.413,8.533-3.413,11.947,0s3.413,8.533,0,11.947l-59.733,59.733C80.067,198.68,78.36,199.533,75.8,199.533z"></path> <path d="M135.533,182.467c-5.12,0-8.533-3.413-8.533-8.533v-42.667c0-5.12,3.413-8.533,8.533-8.533s8.533,3.413,8.533,8.533v42.667 C144.067,179.053,140.653,182.467,135.533,182.467z"></path> <path d="M135.533,139.8H92.867c-5.12,0-8.533-3.413-8.533-8.533c0-5.12,3.413-8.533,8.533-8.533h42.667 c5.12,0,8.533,3.413,8.533,8.533C144.067,136.387,140.653,139.8,135.533,139.8z"></path> <path d="M485.4,429.933H24.6c-14.507,0-25.6-11.093-25.6-25.6v-25.6c0-5.12,3.413-8.533,8.533-8.533h179.2 c5.12,0,8.533,3.413,8.533,8.533v8.533h119.467v-8.533c0-5.12,3.413-8.533,8.533-8.533h179.2c5.12,0,8.533,3.413,8.533,8.533v25.6 C511,418.84,499.907,429.933,485.4,429.933z M16.067,387.267v17.067c0,5.12,3.413,8.533,8.533,8.533h460.8 c5.12,0,8.533-3.413,8.533-8.533v-17.067H331.8v8.533c0,5.12-3.413,8.533-8.533,8.533H186.733c-5.12,0-8.533-3.413-8.533-8.533 v-8.533H16.067z"></path> </g> </g></svg>