<svg height="200px" width="200px" version="1.1" id="Layer_1" xmlns="http://www.w3.org/2000/svg" xmlns:xlink="http://www.w3.org/1999/xlink" viewBox="0 0 503.607 503.607" xml:space="preserve" fill="#000000"><g id="SVGRepo_bgCarrier" stroke-width="0"></g><g id="SVGRepo_tracerCarrier" stroke-linecap="round" stroke-linejoin="round"></g><g id="SVGRepo_iconCarrier"> <g transform="translate(1 1)"> <path style="fill:#FFDD09;" d="M380.902,66.148v41.967c0,5.036-3.357,8.393-7.554,8.393h-127.58c-4.197,0-7.554-4.197-7.554-8.393 V66.148h-71.344v428.066h285.377V66.148H380.902z"></path> <polygon style="fill:#FFFFFF;" points="141.689,494.213 166.869,494.213 166.869,66.148 141.689,66.148 "></polygon> <polygon style="fill:#FD9808;" points="452.246,494.213 477.426,494.213 477.426,66.148 452.246,66.148 "></polygon> <polygon style="fill:#FCC309;" points="368.311,452.246 368.311,385.098 435.459,385.098 "></polygon> <path style="fill:#FFDD09;" d="M393.492,99.721v8.393c0,5.036-4.197,8.393-8.393,8.393H234.016c-5.036,0-8.393-4.197-8.393-8.393 v-8.393h-41.967v352.525h184.656v-67.148h67.148V99.721H393.492z"></path> <g> <polygon style="fill:#FD9808;" points="225.623,208.836 275.984,208.836 275.984,158.475 225.623,158.475 "></polygon> <polygon style="fill:#FD9808;" points="225.623,301.164 275.984,301.164 275.984,250.803 225.623,250.803 "></polygon> <polygon style="fill:#FD9808;" points="225.623,393.492 275.984,393.492 275.984,343.131 225.623,343.131 "></polygon> <path style="fill:#FD9808;" d="M351.525,40.967V24.18c0-9.233-7.554-16.787-16.787-16.787h-50.361 c-9.233,0-16.787,7.554-16.787,16.787v16.787h-33.574c-5.036,0-8.393,3.357-8.393,8.393v58.754c0,5.036,4.197,8.393,8.393,8.393 h151.082c5.036,0,8.393-4.197,8.393-8.393V49.361c0-5.036-3.357-8.393-8.393-8.393H351.525z"></path> </g> <g> <path style="fill:#FFDD09;" d="M351.525,40.967V24.18c0-9.233-7.554-16.787-16.787-16.787h-50.361 c-9.233,0-16.787,7.554-16.787,16.787v16.787h-33.574c-5.036,0-8.393,3.357-8.393,8.393v58.754c0,5.036,4.197,8.393,8.393,8.393 h125.902c5.036,0,8.393-4.197,8.393-8.393V49.361c0-5.036-3.357-8.393-8.393-8.393H351.525z"></path> <path style="fill:#FFDD09;" d="M40.967,32.574v394.492c10.911-10.911,22.662-10.911,33.574,0V32.574 c0-14.269-5.875-25.18-12.59-25.18h-8.393C46.843,7.393,40.967,18.305,40.967,32.574"></path> </g> <g> <polygon style="fill:#FCC309;" points="24.18,91.328 91.328,91.328 91.328,57.754 24.18,57.754 "></polygon> <path style="fill:#FCC309;" d="M57.754,494.213L24.18,427.066l0,0c20.984-10.911,46.164-10.911,67.148,0l0,0L57.754,494.213z"></path> </g> <path style="fill:#FFFFFF;" d="M40.967,32.574c0-14.269,5.875-25.18,12.59-25.18h-4.197c-14.269,0-25.18,10.911-25.18,25.18 v394.492c5.036-2.518,10.911-5.036,16.787-5.875V32.574z"></path> <path style="fill:#FD9808;" d="M66.148,7.393h-4.197c6.715,0,12.59,10.911,12.59,25.18V421.19 c5.875,1.679,11.751,3.357,16.787,5.875V32.574C91.328,18.305,80.416,7.393,66.148,7.393"></path> <path d="M385.098,124.902H234.016c-9.233,0-16.787-7.554-16.787-16.787V49.361c0-9.233,7.554-16.787,16.787-16.787h25.18V24.18 c0-14.269,10.911-25.18,25.18-25.18h50.361c14.269,0,25.18,10.911,25.18,25.18v8.393h25.18c9.233,0,16.787,7.554,16.787,16.787 v58.754C401.885,117.348,394.331,124.902,385.098,124.902z M234.016,49.361v58.754h151.082V49.361h-33.574 c-5.036,0-8.393-3.357-8.393-8.393V24.18c0-5.036-3.357-8.393-8.393-8.393h-50.361c-5.036,0-8.393,3.357-8.393,8.393v16.787 c0,5.036-3.357,8.393-8.393,8.393H234.016z"></path> <path d="M477.426,502.607H141.689c-5.036,0-8.393-3.357-8.393-8.393V66.148c0-5.036,3.357-8.393,8.393-8.393h83.934 c5.036,0,8.393,3.357,8.393,8.393v41.967h151.082V66.148c0-5.036,3.357-8.393,8.393-8.393h83.934c5.036,0,8.393,3.357,8.393,8.393 v75.541c0,5.036-3.357,8.393-8.393,8.393c-5.036,0-8.393-3.357-8.393-8.393V74.541h-67.148v33.574 c0,9.233-7.554,16.787-16.787,16.787H234.016c-9.233,0-16.787-7.554-16.787-16.787V74.541h-67.148V485.82h318.951V208.836 c0-5.036,3.357-8.393,8.393-8.393c5.036,0,8.393,3.357,8.393,8.393v285.377C485.82,499.249,482.462,502.607,477.426,502.607z"></path> <path d="M485.82,175.262c0-5.036-3.357-8.393-8.393-8.393c-5.036,0-8.393,3.357-8.393,8.393s3.357,8.393,8.393,8.393 C482.462,183.656,485.82,180.298,485.82,175.262"></path> <path d="M368.311,460.639c-0.839,0-2.518,0-3.357-0.839c-3.357-0.839-5.036-4.197-5.036-7.554v-67.148 c0-5.036,3.357-8.393,8.393-8.393h67.148c3.357,0,6.715,1.679,7.554,5.036c1.679,3.357,0.839,6.715-1.679,9.233l-67.148,67.148 C372.508,459.8,370.829,460.639,368.311,460.639z M376.705,393.492v38.61l38.61-38.61H376.705z"></path> <path d="M368.311,460.639H183.656c-5.036,0-8.393-3.357-8.393-8.393V99.721c0-5.036,3.357-8.393,8.393-8.393h41.967 c5.036,0,8.393,3.357,8.393,8.393v8.393h151.082v-8.393c0-5.036,3.357-8.393,8.393-8.393h41.967c5.036,0,8.393,3.357,8.393,8.393 v285.377c0,5.036-3.357,8.393-8.393,8.393h-58.754v58.754C376.705,457.282,373.348,460.639,368.311,460.639z M192.049,443.852 h167.869v-58.754c0-5.036,3.357-8.393,8.393-8.393h58.754v-268.59h-25.18c0,9.233-7.554,16.787-16.787,16.787H234.016 c-9.233,0-16.787-7.554-16.787-16.787h-25.18V443.852z"></path> <path d="M275.984,217.229h-50.361c-5.036,0-8.393-3.357-8.393-8.393v-50.361c0-5.036,3.357-8.393,8.393-8.393h50.361 c5.036,0,8.393,3.357,8.393,8.393v50.361C284.377,213.872,281.02,217.229,275.984,217.229z M234.016,200.443h33.574v-33.574 h-33.574V200.443z"></path> <path d="M275.984,309.557h-50.361c-5.036,0-8.393-3.357-8.393-8.393v-50.361c0-5.036,3.357-8.393,8.393-8.393h50.361 c5.036,0,8.393,3.357,8.393,8.393v50.361C284.377,306.2,281.02,309.557,275.984,309.557z M234.016,292.77h33.574v-33.574h-33.574 V292.77z"></path> <path d="M275.984,401.885h-50.361c-5.036,0-8.393-3.357-8.393-8.393v-50.361c0-5.036,3.357-8.393,8.393-8.393h50.361 c5.036,0,8.393,3.357,8.393,8.393v50.361C284.377,398.528,281.02,401.885,275.984,401.885z M234.016,385.098h33.574v-33.574 h-33.574V385.098z"></path> <path d="M393.492,166.869h-75.541c-5.036,0-8.393-3.357-8.393-8.393s3.357-8.393,8.393-8.393h75.541 c5.036,0,8.393,3.357,8.393,8.393S398.528,166.869,393.492,166.869z"></path> <path d="M368.311,208.836h-50.361c-5.036,0-8.393-3.357-8.393-8.393s3.357-8.393,8.393-8.393h50.361 c5.036,0,8.393,3.357,8.393,8.393S373.348,208.836,368.311,208.836z"></path> <path d="M393.492,259.197h-75.541c-5.036,0-8.393-3.357-8.393-8.393s3.357-8.393,8.393-8.393h75.541 c5.036,0,8.393,3.357,8.393,8.393S398.528,259.197,393.492,259.197z"></path> <path d="M368.311,301.164h-50.361c-5.036,0-8.393-3.357-8.393-8.393s3.357-8.393,8.393-8.393h50.361 c5.036,0,8.393,3.357,8.393,8.393S373.348,301.164,368.311,301.164z"></path> <path d="M393.492,359.918h-75.541c-5.036,0-8.393-3.357-8.393-8.393s3.357-8.393,8.393-8.393h75.541 c5.036,0,8.393,3.357,8.393,8.393S398.528,359.918,393.492,359.918z"></path> <path d="M334.738,401.885h-16.787c-5.036,0-8.393-3.357-8.393-8.393c0-5.036,3.357-8.393,8.393-8.393h16.787 c5.036,0,8.393,3.357,8.393,8.393C343.131,398.528,339.774,401.885,334.738,401.885z"></path> <path d="M57.754,502.607c-3.357,0-5.875-1.679-7.554-5.036l-33.574-67.148c-0.839-1.679-0.839-4.197,0-5.875 c0.839-1.679,2.518-4.197,4.197-5.036c23.502-11.751,51.2-11.751,74.702,0c1.679,0.839,3.357,2.518,4.197,5.036 c0.839,2.518,0.839,4.197-0.839,6.715L65.308,498.41C63.63,500.928,61.111,502.607,57.754,502.607z M35.931,431.262l21.823,44.485 l21.823-44.485C65.308,426.226,50.2,426.226,35.931,431.262z"></path> <path d="M91.328,99.721H24.18c-5.036,0-8.393-3.357-8.393-8.393V57.754c0-5.036,3.357-8.393,8.393-8.393h67.148 c5.036,0,8.393,3.357,8.393,8.393v33.574C99.721,96.364,96.364,99.721,91.328,99.721z M32.574,82.934h50.361V66.148H32.574V82.934z "></path> <path d="M57.754,427.066c-5.036,0-8.393-3.357-8.393-8.393V91.328c0-5.036,3.357-8.393,8.393-8.393s8.393,3.357,8.393,8.393 v327.344C66.148,423.708,62.79,427.066,57.754,427.066z"></path> <path d="M91.328,435.459c-1.679,0-2.518,0-3.357-0.839c-18.466-9.233-41.128-9.233-59.593,0c-2.518,1.679-5.875,0.839-8.393,0 c-2.518-1.679-4.197-5.036-4.197-7.554V32.574C15.787,14.108,30.895-1,49.361-1h16.787c18.466,0,33.574,15.108,33.574,33.574 v394.492c0,2.518-1.679,5.875-4.197,7.554C94.685,435.459,93.007,435.459,91.328,435.459z M57.754,411.118 c8.393,0,16.787,1.679,25.18,4.197V32.574c0-9.233-7.554-16.787-16.787-16.787H49.361c-9.233,0-16.787,7.554-16.787,16.787v381.902 C40.967,411.957,49.361,411.118,57.754,411.118z"></path> </g> </g></svg>